<svg xmlns="http://www.w3.org/2000/svg" xmlns:xlink="http://www.w3.org/1999/xlink" width="500" zoomAndPan="magnify" viewBox="0 0 375 374.999991" height="500" preserveAspectRatio="xMidYMid meet" version="1.0"><defs><g/><clipPath id="77f7ce4a71"><path d="M 50 58 L 318 58 L 318 325 L 50 325 Z M 50 58 " clip-rule="nonzero"/></clipPath><clipPath id="ed856998f1"><path d="M 188.445312 1.929688 L 334.148438 154.199219 L 140.148438 339.824219 L -5.550781 187.554688 Z M 188.445312 1.929688 " clip-rule="nonzero"/></clipPath><clipPath id="552dec71e5"><path d="M 188.445312 1.929688 L 374.074219 195.925781 L 180.074219 381.550781 L -5.550781 187.554688 Z M 188.445312 1.929688 " clip-rule="nonzero"/></clipPath><clipPath id="2937b518b9"><path d="M 243.648438 211.566406 L 256.839844 211.566406 L 256.839844 224.757812 L 243.648438 224.757812 Z M 243.648438 211.566406 " clip-rule="nonzero"/></clipPath><clipPath id="ae935ac1c6"><path d="M 250.246094 211.566406 C 246.601562 211.566406 243.648438 214.519531 243.648438 218.164062 C 243.648438 221.804688 246.601562 224.757812 250.246094 224.757812 C 253.886719 224.757812 256.839844 221.804688 256.839844 218.164062 C 256.839844 214.519531 253.886719 211.566406 250.246094 211.566406 " clip-rule="nonzero"/></clipPath></defs><g clip-path="url(#77f7ce4a71)"><g clip-path="url(#ed856998f1)"><g clip-path="url(#552dec71e5)"><path fill="#ffffff" d="M 245.46875 307.484375 C 234.742188 313.039062 223.203125 316.882812 211.429688 319.222656 C 201.792969 321.074219 192.011719 322.054688 182.21875 322.007812 C 180.914062 322.039062 179.613281 321.921875 178.3125 321.875 C 177.011719 321.804688 175.707031 321.777344 174.40625 321.675781 L 170.515625 321.320312 L 168.566406 321.140625 L 166.632812 320.878906 L 162.757812 320.359375 C 161.46875 320.15625 160.191406 319.902344 158.90625 319.679688 C 156.328125 319.28125 153.800781 318.652344 151.246094 318.105469 C 150.878906 318.027344 150.496094 317.941406 150.09375 317.855469 C 149.699219 317.746094 149.289062 317.632812 148.859375 317.519531 C 148.003906 317.28125 147.082031 317.027344 146.105469 316.757812 C 144.128906 316.261719 141.984375 315.492188 139.613281 314.710938 C 139.027344 314.507812 138.417969 314.324219 137.808594 314.09375 C 137.203125 313.859375 136.589844 313.617188 135.960938 313.371094 C 134.707031 312.878906 133.40625 312.367188 132.0625 311.839844 C 129.453125 310.625 126.609375 309.476562 123.792969 307.945312 C 112.3125 302.265625 99.96875 293.269531 89.496094 282.414062 C 79.113281 271.472656 70.671875 258.746094 65.5 247.027344 C 64.097656 244.144531 63.074219 241.253906 61.976562 238.589844 C 61.507812 237.226562 61.054688 235.90625 60.617188 234.632812 C 60.402344 233.992188 60.1875 233.367188 59.976562 232.753906 C 59.773438 232.136719 59.617188 231.519531 59.441406 230.921875 C 58.761719 228.523438 58.089844 226.34375 57.679688 224.347656 C 57.453125 223.359375 57.242188 222.425781 57.046875 221.5625 C 56.945312 221.128906 56.851562 220.714844 56.761719 220.3125 C 56.691406 219.910156 56.625 219.519531 56.5625 219.152344 C 54.777344 209.519531 53.859375 199.738281 53.972656 189.945312 C 54.199219 179.515625 55.703125 169.144531 58.097656 158.980469 C 60.953125 147.316406 65.304688 135.960938 71.324219 125.488281 C 77.222656 114.941406 84.847656 105.378906 93.535156 96.921875 C 102.367188 88.617188 112.257812 81.417969 123.054688 75.996094 C 133.78125 70.441406 145.316406 66.597656 157.09375 64.253906 C 166.726562 62.40625 176.507812 61.425781 186.300781 61.472656 C 187.605469 61.441406 188.90625 61.554688 190.210938 61.601562 C 191.511719 61.671875 192.816406 61.703125 194.113281 61.800781 L 198.007812 62.160156 L 199.953125 62.335938 L 201.890625 62.601562 L 205.765625 63.121094 C 207.050781 63.324219 208.328125 63.578125 209.613281 63.796875 C 212.191406 64.199219 214.722656 64.828125 217.273438 65.371094 C 217.640625 65.453125 218.023438 65.539062 218.425781 65.625 C 218.820312 65.734375 219.234375 65.84375 219.660156 65.960938 C 220.515625 66.195312 221.4375 66.449219 222.417969 66.722656 C 224.390625 67.21875 226.539062 67.988281 228.90625 68.765625 C 229.496094 68.96875 230.105469 69.15625 230.710938 69.386719 C 231.316406 69.621094 231.933594 69.863281 232.5625 70.109375 C 233.816406 70.601562 235.117188 71.113281 236.457031 71.640625 C 239.070312 72.851562 241.914062 74.003906 244.726562 75.53125 C 256.210938 81.214844 268.550781 90.210938 279.027344 101.066406 C 289.40625 112.007812 297.847656 124.734375 303.019531 136.453125 C 304.421875 139.335938 305.445312 142.222656 306.542969 144.890625 C 307.011719 146.25 307.464844 147.574219 307.902344 148.847656 C 308.121094 149.484375 308.335938 150.113281 308.542969 150.726562 C 308.746094 151.34375 308.902344 151.960938 309.082031 152.558594 C 309.757812 154.957031 310.429688 157.136719 310.839844 159.128906 C 311.066406 160.121094 311.277344 161.050781 311.476562 161.917969 C 311.574219 162.347656 311.667969 162.765625 311.757812 163.167969 C 311.828125 163.570312 311.894531 163.957031 311.960938 164.328125 C 313.746094 173.960938 314.660156 183.742188 314.546875 193.535156 C 314.324219 203.964844 312.816406 214.335938 310.421875 224.5 C 307.566406 236.164062 303.214844 247.519531 297.195312 257.992188 C 291.300781 268.535156 283.671875 278.101562 274.988281 286.558594 C 266.15625 294.863281 256.265625 302.058594 245.46875 307.484375 Z M 277.136719 288.675781 L 277.144531 288.667969 C 286.011719 280.03125 293.808594 270.265625 299.847656 259.492188 C 306.011719 248.796875 310.460938 237.183594 313.347656 225.261719 L 314.601562 219.652344 C 314.601562 219.652344 314.898438 218.097656 315.335938 215.765625 C 315.84375 213.445312 316.191406 210.296875 316.652344 207.167969 C 316.917969 204.015625 317.296875 200.875 317.335938 198.503906 C 317.441406 196.132812 317.507812 194.554688 317.507812 194.554688 C 317.507812 194.554688 317.519531 194.160156 317.523438 193.46875 C 317.523438 192.777344 317.53125 191.789062 317.535156 190.605469 C 317.609375 188.230469 317.417969 185.078125 317.292969 181.917969 C 317.179688 180.34375 317.015625 178.769531 316.890625 177.292969 C 316.820312 176.554688 316.757812 175.84375 316.695312 175.167969 C 316.601562 174.496094 316.511719 173.859375 316.429688 173.269531 C 316.105469 170.921875 315.886719 169.355469 315.886719 169.355469 C 315.886719 169.355469 315.855469 169 315.753906 168.46875 C 315.660156 167.941406 315.539062 167.234375 315.414062 166.527344 C 315.167969 165.113281 314.917969 163.699219 314.917969 163.699219 C 314.855469 163.320312 314.785156 162.925781 314.714844 162.511719 C 314.625 162.101562 314.53125 161.675781 314.429688 161.230469 C 314.230469 160.34375 314.015625 159.390625 313.785156 158.378906 C 313.371094 156.335938 312.6875 154.105469 311.996094 151.648438 C 311.816406 151.039062 311.652344 150.40625 311.449219 149.773438 C 311.234375 149.144531 311.015625 148.503906 310.796875 147.851562 C 310.347656 146.542969 309.886719 145.191406 309.410156 143.792969 C 308.289062 141.066406 307.242188 138.109375 305.808594 135.160156 C 300.523438 123.15625 291.886719 110.121094 281.257812 98.925781 C 270.546875 87.816406 257.902344 78.613281 246.144531 72.804688 C 243.261719 71.242188 240.351562 70.0625 237.675781 68.828125 C 236.300781 68.289062 234.972656 67.765625 233.683594 67.261719 C 233.042969 67.011719 232.410156 66.765625 231.792969 66.523438 C 231.171875 66.292969 230.546875 66.101562 229.941406 65.894531 C 227.519531 65.097656 225.320312 64.316406 223.300781 63.8125 C 222.296875 63.535156 221.355469 63.28125 220.476562 63.039062 C 220.039062 62.921875 219.617188 62.808594 219.210938 62.699219 C 218.800781 62.609375 218.40625 62.523438 218.03125 62.445312 C 218.03125 62.445312 216.632812 62.132812 215.230469 61.824219 C 214.527344 61.671875 213.828125 61.515625 213.304688 61.398438 C 212.78125 61.273438 212.425781 61.230469 212.425781 61.230469 C 212.425781 61.230469 210.871094 60.941406 208.539062 60.511719 C 207.953125 60.40625 207.324219 60.289062 206.65625 60.164062 C 205.984375 60.074219 205.273438 59.976562 204.539062 59.878906 C 203.070312 59.683594 201.507812 59.449219 199.9375 59.269531 C 196.785156 59.007812 193.644531 58.675781 191.269531 58.644531 C 190.085938 58.597656 189.097656 58.558594 188.40625 58.53125 C 187.71875 58.503906 187.320312 58.5 187.320312 58.5 C 187.320312 58.5 185.742188 58.496094 183.371094 58.496094 C 181 58.429688 177.84375 58.671875 174.683594 58.796875 C 171.539062 59.121094 168.378906 59.328125 166.035156 59.730469 C 163.6875 60.070312 162.121094 60.292969 162.121094 60.292969 L 156.464844 61.300781 C 144.421875 63.65625 132.625 67.59375 121.667969 73.277344 C 110.640625 78.835938 100.542969 86.195312 91.519531 94.675781 L 91.511719 94.679688 L 91.449219 94.742188 L 91.382812 94.804688 L 91.378906 94.8125 C 82.511719 103.449219 74.710938 113.214844 68.671875 123.984375 C 62.511719 134.683594 58.058594 146.292969 55.175781 158.21875 L 53.917969 163.828125 C 53.917969 163.828125 53.625 165.382812 53.183594 167.714844 C 52.679688 170.035156 52.332031 173.183594 51.871094 176.3125 C 51.605469 179.464844 51.222656 182.605469 51.183594 184.976562 C 51.082031 187.34375 51.011719 188.925781 51.011719 188.925781 C 51.011719 188.925781 51 189.320312 51 190.011719 C 50.996094 190.703125 50.988281 191.6875 50.984375 192.875 C 50.910156 195.246094 51.105469 198.402344 51.230469 201.5625 C 51.339844 203.136719 51.503906 204.707031 51.632812 206.183594 C 51.699219 206.921875 51.765625 207.636719 51.828125 208.3125 C 51.921875 208.984375 52.007812 209.621094 52.089844 210.207031 C 52.417969 212.558594 52.636719 214.121094 52.636719 214.121094 C 52.636719 214.121094 52.664062 214.480469 52.765625 215.007812 C 52.859375 215.539062 52.984375 216.246094 53.105469 216.953125 C 53.355469 218.367188 53.601562 219.78125 53.601562 219.78125 C 53.667969 220.15625 53.734375 220.554688 53.804688 220.96875 C 53.894531 221.378906 53.992188 221.804688 54.089844 222.25 C 54.289062 223.136719 54.507812 224.085938 54.734375 225.101562 C 55.152344 227.140625 55.835938 229.375 56.523438 231.832031 C 56.703125 232.441406 56.867188 233.074219 57.074219 233.707031 C 57.285156 234.335938 57.503906 234.976562 57.726562 235.628906 C 58.171875 236.933594 58.636719 238.289062 59.113281 239.683594 C 60.230469 242.414062 61.28125 245.371094 62.710938 248.320312 C 68 260.320312 76.636719 273.359375 87.261719 284.554688 C 97.976562 295.660156 110.621094 304.863281 122.378906 310.675781 C 125.261719 312.234375 128.171875 313.414062 130.847656 314.652344 C 132.21875 315.191406 133.550781 315.714844 134.835938 316.214844 C 135.480469 316.46875 136.109375 316.714844 136.730469 316.953125 C 137.351562 317.1875 137.976562 317.378906 138.578125 317.585938 C 141.003906 318.382812 143.203125 319.164062 145.222656 319.667969 C 146.226562 319.941406 147.167969 320.199219 148.042969 320.4375 C 148.480469 320.558594 148.90625 320.671875 149.308594 320.78125 C 149.722656 320.867188 150.113281 320.953125 150.488281 321.035156 C 150.488281 321.035156 151.890625 321.34375 153.292969 321.65625 C 153.992188 321.808594 154.691406 321.964844 155.21875 322.078125 C 155.738281 322.203125 156.097656 322.25 156.097656 322.25 C 156.097656 322.25 157.652344 322.535156 159.984375 322.964844 C 160.566406 323.074219 161.199219 323.191406 161.863281 323.3125 C 162.539062 323.40625 163.246094 323.503906 163.980469 323.601562 C 165.453125 323.792969 167.015625 324.027344 168.585938 324.210938 C 171.734375 324.472656 174.878906 324.804688 177.25 324.835938 C 178.433594 324.882812 179.421875 324.921875 180.113281 324.949219 C 180.804688 324.976562 181.199219 324.980469 181.199219 324.980469 C 181.199219 324.980469 182.78125 324.980469 185.148438 324.984375 C 187.523438 325.050781 190.675781 324.808594 193.835938 324.679688 C 196.984375 324.359375 200.144531 324.152344 202.484375 323.75 C 204.835938 323.410156 206.398438 323.183594 206.398438 323.183594 L 212.058594 322.179688 C 224.097656 319.824219 235.894531 315.886719 246.851562 310.203125 C 257.878906 304.644531 267.980469 297.28125 277 288.804688 L 277.007812 288.800781 L 277.074219 288.738281 L 277.136719 288.675781 " fill-opacity="1" fill-rule="nonzero"/></g></g></g><g fill="#ffffff" fill-opacity="1"><g transform="translate(171.45604, 324.888403)"><g><path d="M 1.609375 0 L 1.59375 -15.40625 L 8.125 -15.421875 C 8.832031 -15.421875 9.484375 -15.269531 10.078125 -14.96875 C 10.679688 -14.675781 11.203125 -14.285156 11.640625 -13.796875 C 12.078125 -13.316406 12.414062 -12.769531 12.65625 -12.15625 C 12.90625 -11.539062 13.03125 -10.921875 13.03125 -10.296875 C 13.03125 -9.648438 12.910156 -9.019531 12.671875 -8.40625 C 12.441406 -7.789062 12.117188 -7.242188 11.703125 -6.765625 C 11.285156 -6.285156 10.78125 -5.898438 10.1875 -5.609375 C 9.59375 -5.328125 8.941406 -5.1875 8.234375 -5.1875 L 4.578125 -5.171875 L 4.59375 0 Z M 4.578125 -7.796875 L 8.0625 -7.8125 C 8.601562 -7.8125 9.054688 -8.035156 9.421875 -8.484375 C 9.796875 -8.929688 9.984375 -9.535156 9.984375 -10.296875 C 9.984375 -10.691406 9.925781 -11.046875 9.8125 -11.359375 C 9.695312 -11.671875 9.546875 -11.929688 9.359375 -12.140625 C 9.171875 -12.359375 8.945312 -12.519531 8.6875 -12.625 C 8.4375 -12.738281 8.179688 -12.796875 7.921875 -12.796875 L 4.578125 -12.78125 Z M 4.578125 -7.796875 "/></g></g></g><g fill="#ffffff" fill-opacity="1"><g transform="translate(194.76353, 324.055433)"><g><path d="M 3.234375 -16.203125 L 5.859375 -16.671875 L 14.28125 -2.5 L 11.25 -1.96875 L 9.15625 -5.5 L 3.859375 -4.578125 L 3.140625 -0.546875 L 0.109375 -0.015625 Z M 8.265625 -7.484375 L 5.125 -13.078125 L 3.984375 -6.734375 Z M 8.265625 -7.484375 "/></g></g></g><g fill="#ffffff" fill-opacity="1"><g transform="translate(218.598066, 318.963875)"><g><path d="M 6.296875 -14.34375 C 6.171875 -14.414062 5.953125 -14.488281 5.640625 -14.5625 C 5.328125 -14.632812 4.960938 -14.679688 4.546875 -14.703125 C 4.128906 -14.734375 3.6875 -14.722656 3.21875 -14.671875 C 2.757812 -14.628906 2.316406 -14.53125 1.890625 -14.375 C 1.117188 -14.09375 0.59375 -13.742188 0.3125 -13.328125 C 0.03125 -12.910156 -0.015625 -12.441406 0.171875 -11.921875 C 0.273438 -11.617188 0.429688 -11.390625 0.640625 -11.234375 C 0.859375 -11.085938 1.128906 -10.988281 1.453125 -10.9375 C 1.785156 -10.894531 2.179688 -10.882812 2.640625 -10.90625 C 3.097656 -10.9375 3.625 -10.984375 4.21875 -11.046875 C 5 -11.097656 5.71875 -11.117188 6.375 -11.109375 C 7.03125 -11.109375 7.613281 -11.015625 8.125 -10.828125 C 8.644531 -10.648438 9.097656 -10.367188 9.484375 -9.984375 C 9.867188 -9.609375 10.179688 -9.085938 10.421875 -8.421875 C 10.691406 -7.648438 10.78125 -6.9375 10.6875 -6.28125 C 10.601562 -5.625 10.375 -5.035156 10 -4.515625 C 9.625 -3.992188 9.140625 -3.539062 8.546875 -3.15625 C 7.960938 -2.769531 7.3125 -2.445312 6.59375 -2.1875 C 5.5 -1.800781 4.363281 -1.582031 3.1875 -1.53125 C 2.007812 -1.476562 0.890625 -1.59375 -0.171875 -1.875 L 0.203125 -4.75 C 0.367188 -4.664062 0.648438 -4.582031 1.046875 -4.5 C 1.441406 -4.425781 1.890625 -4.367188 2.390625 -4.328125 C 2.890625 -4.285156 3.429688 -4.289062 4.015625 -4.34375 C 4.597656 -4.40625 5.171875 -4.535156 5.734375 -4.734375 C 7.285156 -5.296875 7.878906 -6.078125 7.515625 -7.078125 C 7.410156 -7.378906 7.222656 -7.601562 6.953125 -7.75 C 6.691406 -7.90625 6.367188 -8.003906 5.984375 -8.046875 C 5.609375 -8.097656 5.164062 -8.109375 4.65625 -8.078125 C 4.144531 -8.046875 3.570312 -8.007812 2.9375 -7.96875 C 2.1875 -7.90625 1.515625 -7.894531 0.921875 -7.9375 C 0.328125 -7.988281 -0.191406 -8.101562 -0.640625 -8.28125 C -1.085938 -8.46875 -1.46875 -8.726562 -1.78125 -9.0625 C -2.101562 -9.40625 -2.363281 -9.859375 -2.5625 -10.421875 C -2.820312 -11.148438 -2.921875 -11.847656 -2.859375 -12.515625 C -2.796875 -13.191406 -2.585938 -13.804688 -2.234375 -14.359375 C -1.890625 -14.921875 -1.429688 -15.410156 -0.859375 -15.828125 C -0.296875 -16.253906 0.351562 -16.601562 1.09375 -16.875 C 2.101562 -17.238281 3.09375 -17.414062 4.0625 -17.40625 C 5.039062 -17.394531 5.925781 -17.285156 6.71875 -17.078125 Z M 6.296875 -14.34375 "/></g></g></g><g fill="#ffffff" fill-opacity="1"><g transform="translate(240.117041, 310.439451)"><g><path d="M 4.9375 -20.625 L 12.625 -7.265625 L 10.046875 -5.78125 L 6.765625 -11.484375 L 0.703125 -8 L 3.984375 -2.296875 L 1.390625 -0.796875 L -6.296875 -14.15625 L -3.703125 -15.65625 L -0.59375 -10.265625 L 5.46875 -13.75 L 2.359375 -19.140625 Z M 4.9375 -20.625 "/></g></g></g><g fill="#ffffff" fill-opacity="1"><g transform="translate(262.237429, 296.630048)"><g><path d="M 4.484375 -7.234375 C 5.035156 -7.703125 5.398438 -8.195312 5.578125 -8.71875 C 5.753906 -9.25 5.800781 -9.789062 5.71875 -10.34375 C 5.644531 -10.894531 5.457031 -11.4375 5.15625 -11.96875 C 4.863281 -12.5 4.507812 -13.003906 4.09375 -13.484375 L -1.03125 -19.4375 L 1.21875 -21.375 L 6.34375 -15.421875 C 7.03125 -14.617188 7.578125 -13.785156 7.984375 -12.921875 C 8.398438 -12.054688 8.628906 -11.179688 8.671875 -10.296875 C 8.710938 -9.421875 8.539062 -8.550781 8.15625 -7.6875 C 7.78125 -6.820312 7.144531 -6.003906 6.25 -5.234375 C 5.3125 -4.429688 4.375 -3.910156 3.4375 -3.671875 C 2.507812 -3.429688 1.613281 -3.398438 0.75 -3.578125 C -0.113281 -3.765625 -0.9375 -4.128906 -1.71875 -4.671875 C -2.507812 -5.222656 -3.226562 -5.875 -3.875 -6.625 L -9 -12.578125 L -6.71875 -14.53125 L -1.59375 -8.578125 C -1.175781 -8.085938 -0.726562 -7.65625 -0.25 -7.28125 C 0.226562 -6.90625 0.734375 -6.640625 1.265625 -6.484375 C 1.796875 -6.328125 2.332031 -6.300781 2.875 -6.40625 C 3.425781 -6.507812 3.960938 -6.785156 4.484375 -7.234375 Z M 4.484375 -7.234375 "/></g></g></g><g fill="#ffffff" fill-opacity="1"><g transform="translate(281.108032, 278.909942)"><g/></g></g><g fill="#ffffff" fill-opacity="1"><g transform="translate(290.489093, 267.483137)"><g><path d="M -3.65625 -15.234375 C -3.800781 -15.222656 -4.015625 -15.148438 -4.296875 -15.015625 C -4.585938 -14.878906 -4.90625 -14.695312 -5.25 -14.46875 C -5.601562 -14.238281 -5.945312 -13.960938 -6.28125 -13.640625 C -6.625 -13.328125 -6.921875 -12.976562 -7.171875 -12.59375 C -7.617188 -11.90625 -7.828125 -11.304688 -7.796875 -10.796875 C -7.773438 -10.296875 -7.53125 -9.894531 -7.0625 -9.59375 C -6.789062 -9.425781 -6.523438 -9.347656 -6.265625 -9.359375 C -6.015625 -9.367188 -5.742188 -9.453125 -5.453125 -9.609375 C -5.160156 -9.765625 -4.835938 -9.992188 -4.484375 -10.296875 C -4.140625 -10.597656 -3.75 -10.945312 -3.3125 -11.34375 C -2.726562 -11.863281 -2.171875 -12.316406 -1.640625 -12.703125 C -1.109375 -13.085938 -0.582031 -13.363281 -0.0625 -13.53125 C 0.457031 -13.707031 0.984375 -13.757812 1.515625 -13.6875 C 2.054688 -13.625 2.625 -13.398438 3.21875 -13.015625 C 3.90625 -12.566406 4.410156 -12.050781 4.734375 -11.46875 C 5.054688 -10.882812 5.222656 -10.269531 5.234375 -9.625 C 5.242188 -8.988281 5.128906 -8.335938 4.890625 -7.671875 C 4.660156 -7.003906 4.335938 -6.351562 3.921875 -5.71875 C 3.296875 -4.75 2.53125 -3.890625 1.625 -3.140625 C 0.71875 -2.390625 -0.242188 -1.8125 -1.265625 -1.40625 L -2.703125 -3.90625 C -2.515625 -3.945312 -2.242188 -4.050781 -1.890625 -4.21875 C -1.535156 -4.394531 -1.140625 -4.617188 -0.703125 -4.890625 C -0.273438 -5.160156 0.148438 -5.492188 0.578125 -5.890625 C 1.003906 -6.285156 1.378906 -6.734375 1.703125 -7.234375 C 2.609375 -8.617188 2.617188 -9.597656 1.734375 -10.171875 C 1.460938 -10.347656 1.171875 -10.421875 0.859375 -10.390625 C 0.554688 -10.359375 0.238281 -10.242188 -0.09375 -10.046875 C -0.425781 -9.859375 -0.785156 -9.59375 -1.171875 -9.25 C -1.554688 -8.914062 -1.992188 -8.539062 -2.484375 -8.125 C -3.046875 -7.625 -3.578125 -7.210938 -4.078125 -6.890625 C -4.578125 -6.566406 -5.054688 -6.34375 -5.515625 -6.21875 C -5.984375 -6.09375 -6.445312 -6.066406 -6.90625 -6.140625 C -7.363281 -6.222656 -7.835938 -6.429688 -8.328125 -6.765625 C -8.984375 -7.179688 -9.488281 -7.675781 -9.84375 -8.25 C -10.195312 -8.820312 -10.40625 -9.4375 -10.46875 -10.09375 C -10.53125 -10.75 -10.460938 -11.414062 -10.265625 -12.09375 C -10.066406 -12.78125 -9.753906 -13.453125 -9.328125 -14.109375 C -8.734375 -15.015625 -8.046875 -15.753906 -7.265625 -16.328125 C -6.492188 -16.910156 -5.722656 -17.363281 -4.953125 -17.6875 Z M -3.65625 -15.234375 "/></g></g></g><g fill="#ffffff" fill-opacity="1"><g transform="translate(302.37186, 247.7242)"><g><path d="M 2.515625 -12.328125 L 4.921875 -11.28125 L 0.640625 -1.46875 L -13.484375 -7.625 L -9.28125 -17.25 L -6.875 -16.203125 L -9.875 -9.3125 L -6.484375 -7.828125 L -3.890625 -13.796875 L -1.65625 -12.828125 L -4.25 -6.859375 L -0.5625 -5.25 Z M 2.515625 -12.328125 "/></g></g></g><g fill="#ffffff" fill-opacity="1"><g transform="translate(310.795576, 226.498273)"><g><path d="M -14.203125 -6.765625 L -1.890625 -8.03125 L -12.234375 -14.828125 L -11.484375 -17.875 L 2.046875 -8.359375 L 1.453125 -5.921875 L -14.953125 -3.71875 Z M -14.203125 -6.765625 "/></g></g></g><g fill="#ffffff" fill-opacity="1"><g transform="translate(315.783357, 202.51299)"><g><path d="M -14.984375 -6.953125 L -14.828125 -9.609375 L 0.9375 -14.46875 L 0.734375 -11.390625 L -3.1875 -10.21875 L -3.53125 -4.828125 L 0.203125 -3.1875 L 0 -0.109375 Z M -5.328125 -9.796875 L -11.5 -8.0625 L -5.609375 -5.453125 Z M -5.328125 -9.796875 "/></g></g></g><g fill="#ffffff" fill-opacity="1"><g transform="translate(101.900467, 223.082618)"><g><path d="M 78.769531 -73.980469 C 74.234375 -88.605469 59.953125 -93.5625 46.097656 -93.5625 C 33.695312 -93.5625 20.953125 -89.714844 9.75 -85.269531 C 8.980469 -84.839844 6.757812 -83.730469 7.695312 -82.53125 C 8.039062 -82.105469 8.722656 -81.933594 9.40625 -81.933594 C 10.519531 -81.933594 11.972656 -82.359375 12.570312 -82.703125 C 22.066406 -86.550781 32.585938 -89.800781 42.933594 -89.800781 C 53.796875 -89.800781 65.253906 -86.039062 69.960938 -75.347656 C 73.894531 -66.964844 73.722656 -55.589844 68.761719 -47.808594 C 63.546875 -39.683594 54.566406 -36.605469 45.414062 -36.605469 C 38.230469 -36.605469 30.445312 -38.742188 25.570312 -43.445312 C 25.402344 -53.878906 24.714844 -64.316406 23.691406 -74.835938 C 23.691406 -75.175781 23.089844 -75.347656 22.320312 -75.347656 C 20.183594 -75.347656 16.164062 -74.148438 16.25 -72.695312 C 18.132812 -53.109375 19.15625 -33.097656 17.019531 -13.511719 C 16.078125 -4.53125 14.710938 5.386719 9.492188 13.085938 C 7.183594 16.675781 1.710938 20.355469 -2.394531 20.355469 C -10.175781 20.355469 -14.453125 16.675781 -18.988281 13 C -19.242188 12.828125 -19.671875 12.742188 -20.183594 12.742188 C -22.664062 12.742188 -27.28125 14.453125 -26 15.566406 C -20.097656 20.355469 -12.570312 23.175781 -5.132812 23.175781 C 0.941406 23.175781 7.011719 21.296875 11.972656 17.191406 C 19.070312 11.375 21.722656 1.96875 23.261719 -6.585938 C 24.886719 -16.335938 25.570312 -26.339844 25.570312 -36.347656 C 31.644531 -33.609375 37.886719 -33.011719 44.472656 -33.011719 C 54.734375 -33.269531 65.683594 -36.691406 72.78125 -44.300781 C 80.050781 -52 81.675781 -63.972656 78.769531 -73.980469 Z M 78.769531 -73.980469 "/></g></g></g><g fill="#ffffff" fill-opacity="1"><g transform="translate(176.745572, 223.082618)"><g><path d="M 63.628906 -65.769531 C 65.425781 -82.875 54.734375 -92.878906 39.683594 -92.878906 C 30.875 -92.878906 20.441406 -89.542969 14.882812 -82.445312 C 10.175781 -76.542969 9.152344 -66.964844 13.257812 -60.722656 C 16.933594 -54.90625 23.777344 -51.828125 29.847656 -48.921875 C 36.859375 -45.585938 44.128906 -42.421875 49.859375 -37.03125 C 56.359375 -30.875 60.464844 -21.382812 56.359375 -12.828125 C 52.855469 -5.644531 45.585938 -2.652344 38.402344 -2.652344 C 36.433594 -2.652344 34.550781 -2.824219 32.671875 -3.25 C 22.40625 -5.386719 15.394531 -12.828125 15.90625 -23.175781 C 15.992188 -25.488281 16.335938 -27.882812 16.933594 -30.191406 C 17.191406 -31.132812 16.164062 -31.472656 14.882812 -31.472656 C 12.828125 -31.472656 9.835938 -30.53125 9.492188 -29.078125 C 5.472656 -12.058594 13.941406 -1.539062 30.105469 0.769531 C 32.242188 1.027344 34.464844 1.199219 36.605469 1.199219 C 40.195312 1.199219 43.789062 0.769531 47.125 -0.34375 C 57.300781 -3.675781 66.539062 -12.144531 65.511719 -23.605469 C 64.742188 -32.070312 58.585938 -39.257812 51.828125 -43.789062 C 45.328125 -48.152344 37.972656 -51.058594 31.046875 -54.652344 C 25.570312 -57.558594 19.757812 -61.40625 18.472656 -67.90625 C 16.078125 -80.308594 25.316406 -89.03125 37.03125 -89.03125 C 47.039062 -89.03125 54.90625 -81.503906 56.191406 -72.183594 C 56.445312 -69.617188 56.445312 -67.136719 56.191406 -64.742188 C 56.019531 -63.714844 57.046875 -63.289062 58.414062 -63.289062 C 60.550781 -63.289062 63.460938 -64.398438 63.628906 -65.769531 Z M 63.628906 -65.769531 "/></g></g></g><g clip-path="url(#2937b518b9)"><g clip-path="url(#ae935ac1c6)"><path fill="#ffffff" d="M 243.648438 211.566406 L 256.839844 211.566406 L 256.839844 224.757812 L 243.648438 224.757812 Z M 243.648438 211.566406 " fill-opacity="1" fill-rule="nonzero"/></g></g></svg>